<?xml version="1.0" encoding="utf-8"?>
<!-- Generator: Adobe Illustrator 27.5.0, SVG Export Plug-In . SVG Version: 6.00 Build 0)  -->
<svg version="1.1" id="Layer_1" xmlns="http://www.w3.org/2000/svg" xmlns:xlink="http://www.w3.org/1999/xlink" x="0px" y="0px"
	 viewBox="0 0 4000 4000" style="enable-background:new 0 0 4000 4000;" xml:space="preserve">
<g>
	<g>
		<rect style="fill:#BCFA7A;" width="4000" height="4000"/>
	</g>
	<g>
		<g>
			<g>
				<path style="fill:#F64050;" d="M3273.116,2771.504c-587.225,542.615-1985.643,468.644-2623.42-31.59
					c-14.287-11.186-18.35-31.109-9.743-47.057c52.868-97.74,114.605-207.451,182.154-323.804
					c160.395-276.224,353.515-589.672,538.159-868.779c228.118-344.733,443.346-636.991,567.957-741.634
					c35.653-29.929,87.778-28.575,122.47,2.447c229.691,205.179,649.88,959.003,1041.495,1640.43
					c63.616,110.716,126.49,219.51,187.659,323.76c1.005,1.705,1.879,3.496,2.578,5.331
					C3287.927,2744.677,3284.476,2760.974,3273.116,2771.504z"/>
			</g>
			<g>
				<path style="fill:#CC2F4A;" d="M1175.839,2558.547c-121.596-39.323-238.997-105.998-353.733-189.494
					c160.395-276.224,353.515-589.672,538.159-868.779l9.7-2.971c-117.401,216.758-149.428,418.092,22.239,582.594L1209.22,2480.6
					c28.4,45.921,63.529,89.875,104.425,131.427C1267.244,2595.773,1221.235,2577.946,1175.839,2558.547z"/>
			</g>
			<g>
				<path style="fill:#B3D0E2;" d="M1588.295,2810.346c-154.016-29.667-306.109-74.496-452.653-133.83
					c-128.106-39.323-251.843-105.998-372.739-189.494c-40.634,66.412-79.302,130.64-115.304,191.766
					c17.564-32.376,36.09-65.976,55.446-100.667c3.67-6.641,7.384-13.283,11.142-19.968c33.774-60.295,69.908-123.649,107.92-189.1
					c114.736,83.496,232.138,150.171,353.733,189.494c45.396,19.399,91.404,37.226,137.806,53.479
					C1387.791,2687.133,1481.03,2754.245,1588.295,2810.346z"/>
			</g>
			<g>
				<path style="fill:#FFFFFF;" d="M3271.281,2710.64c-38.362-62.699-77.204-126.621-116.265-191.154
					c-432.86,309.298-1012.046,397.906-1566.721,290.86c-107.265-56.101-200.504-123.213-274.65-198.32
					c607.717,212.825,1290.934,156.593,1778.541-210.51C3152.831,2507.077,3212.82,2610.847,3271.281,2710.64z"/>
			</g>
			<g>
				<path style="fill:#4CB051;" d="M3273.116,2771.504c-587.225,542.615-1985.643,468.644-2623.42-31.59
					c-14.287-11.186-18.35-31.109-9.743-47.057c2.447-4.544,4.937-9.132,7.428-13.719c36.09-61.213,74.801-125.572,115.523-192.115
					c120.897,83.496,244.633,150.171,372.739,189.494c674.435,273.077,1466.315,238.123,2019.373-157.03
					c39.061,64.533,77.903,128.455,116.265,191.154c2.84,4.893,5.724,9.787,8.564,14.636
					C3288.67,2740.351,3285.961,2759.619,3273.116,2771.504z"/>
			</g>
			<g>
				<path style="fill:#338C33;" d="M3285,2744.24c0,10.093-4.063,20.055-11.884,27.264
					c-587.225,542.615-1985.643,468.644-2623.42-31.59c-14.287-11.186-18.35-31.109-9.743-47.057
					c2.447-4.544,4.937-9.132,7.428-13.719c0.088-0.131,0.131-0.218,0.218-0.349c36.002-61.125,74.67-125.354,115.304-191.766
					c120.897,83.496,244.633,150.171,372.739,189.494c146.544,59.334,298.637,104.162,452.653,133.83
					c445.531,233.098,1132.768,276.703,1694.127-79.739c0.044,0.087,0.044,0.131,0.087,0.218c0.393,1.005,0.743,2.053,1.049,3.103
					c0,0,0,0,0,0.043c0.262,0.962,0.524,1.967,0.699,2.971c0.087,0.262,0.131,0.524,0.131,0.787c0.219,1.005,0.35,2.01,0.437,3.014
					c0,0.044,0,0.088,0,0.088C3284.956,2741.968,3285,2743.104,3285,2744.24z"/>
			</g>
			<g>
				<path style="fill:#4CB051;" d="M3282.422,2730.608c-561.359,356.442-1248.596,312.837-1694.127,79.739
					c554.674,107.046,1133.86,18.438,1566.721-290.86c39.061,64.533,77.903,128.455,116.265,191.154
					c2.84,4.893,5.724,9.787,8.564,14.636C3280.849,2726.981,3281.723,2728.772,3282.422,2730.608z"/>
			</g>
			<g style="opacity:0.5;">
				<path style="fill:#FFFFFF;" d="M3279.844,2725.277c-61.169-104.249-124.042-213.044-187.659-323.76
					c-391.615-681.426-811.804-1435.25-1041.495-1640.43c-34.692-31.021-86.817-32.376-122.47-2.447
					c-3.077,2.583-6.234,5.331-9.42,8.141c30.097-8.505,63.541-1.527,88.198,20.521
					c229.691,205.179,649.88,959.003,1041.495,1640.43c63.616,110.716,126.489,219.51,187.659,323.76
					c8.826,15.074,6.117,34.343-6.729,46.227c-47.293,43.7-99.874,83.377-156.868,119.178
					c74.01-42.341,141.407-90.734,200.56-145.394C3285.961,2759.619,3288.67,2740.351,3279.844,2725.277z"/>
			</g>
			<g>
				<path style="fill:#000072;" d="M1550.797,2297.908c-4.774-7.861-15.734-9.555-22.399-3.218
					c-12.706,12.08-30.712,33.466-35.284,60.86c-5.573,33.398,18.393,49.303,29.822,54.889c3.645,1.781,7.833,1.92,11.577,0.357
					C1551.691,2403.625,1598.158,2375.909,1550.797,2297.908z"/>
			</g>
			<g>
				<path style="fill:#000072;" d="M1158.563,2167.257c-1.734-8.206-9.302-11.127-15.519-5.733
					c-11.852,10.282-29.584,29.007-38.901,55.14c-11.359,31.86,2.513,50.125,9.567,56.889c2.25,2.157,5.253,2.779,8.307,1.692
					C1136.033,2270.26,1175.768,2248.679,1158.563,2167.257z"/>
			</g>
			<g>
				<path style="fill:#000072;" d="M1368.653,1750.445c-0.927-8.336-8.175-11.98-14.888-7.216
					c-12.796,9.08-32.266,25.991-44.082,51.093c-14.406,30.604-2.376,50.132,3.986,57.55c2.029,2.366,4.958,3.277,8.104,2.493
					C1336.207,1850.766,1377.853,1833.155,1368.653,1750.445z"/>
			</g>
			<g>
				<path style="fill:#000072;" d="M1600.222,1330.998c-0.927-8.336-8.175-11.98-14.888-7.216
					c-12.796,9.08-32.266,25.991-44.082,51.093c-14.406,30.604-2.376,50.132,3.986,57.55c2.029,2.366,4.958,3.277,8.104,2.493
					C1567.776,1431.32,1609.423,1413.708,1600.222,1330.998z"/>
			</g>
			<g>
				<path style="fill:#000072;" d="M1897.828,2343.236c-5.669-6.686-16.238-6.641-21.564,0.321
					c-10.152,13.27-23.903,36.093-24.109,62.561c-0.251,32.269,24.685,43.656,36.278,47.204c3.697,1.132,7.66,0.636,10.95-1.395
					C1914.479,2442.607,1954.071,2409.571,1897.828,2343.236z"/>
			</g>
			<g>
				<path style="fill:#000072;" d="M2314.206,2346.135c-6.345-5.802-16.623-4.446-20.941,2.988
					c-8.231,14.171-18.778,38.083-15.694,63.862c3.76,31.428,29.436,39.413,41.155,41.427c3.738,0.642,7.532-0.332,10.481-2.716
					C2342.739,2440.754,2377.161,2403.698,2314.206,2346.135z"/>
			</g>
			<g>
				<path style="fill:#000072;" d="M1900.954,1399.556c-3.983-4.854-11.554-4.944-15.449-0.019
					c-7.425,9.387-17.537,25.575-17.99,44.531c-0.552,23.11,17.177,31.554,25.439,34.229c2.635,0.853,5.479,0.544,7.859-0.873
					C1911.734,1470.924,1940.473,1447.718,1900.954,1399.556z"/>
			</g>
			<g>
				<path style="fill:#000072;" d="M1986.771,1124.101c-3.082-3.757-8.941-3.826-11.956-0.015
					c-5.746,7.265-13.572,19.792-13.922,34.462c-0.427,17.884,13.293,24.419,19.687,26.489c2.039,0.66,4.24,0.421,6.082-0.675
					C1995.113,1179.331,2017.353,1161.373,1986.771,1124.101z"/>
			</g>
			<g>
				<path style="fill:#000072;" d="M2102.012,1400.918c-4.426-3.93-11.489-2.894-14.386,2.268
					c-5.524,9.839-12.545,26.406-10.163,44.122c2.904,21.598,20.66,26.837,28.749,28.106c2.58,0.405,5.182-0.304,7.188-1.975
					C2122.605,1465.77,2145.93,1439.914,2102.012,1400.918z"/>
			</g>
			<g>
				<path style="fill:#000072;" d="M2288.933,1380.32c-5.11-3.49-12.297-1.481-14.62,4.254c-4.428,10.934-9.517,29.043-4.704,47.1
					c5.868,22.014,24.975,25.099,33.531,25.344c2.729,0.078,5.334-1,7.193-2.999
					C2318.866,1444.85,2339.635,1414.951,2288.933,1380.32z"/>
			</g>
			<g>
				<path style="fill:#000072;" d="M2149.801,1120.418c-4.212-2.877-10.135-1.221-12.05,3.507
					c-3.649,9.012-7.844,23.938-3.877,38.821c4.837,18.144,20.585,20.687,27.636,20.889c2.249,0.065,4.396-0.825,5.929-2.472
					C2174.473,1173.605,2191.591,1148.961,2149.801,1120.418z"/>
			</g>
			<g>
				<path style="fill:#000072;" d="M2731.482,2246.817c-7.58-3.281-16.489,1.171-18.081,9.275
					c-3.035,15.448-5.12,40.468,5.758,62.911c13.262,27.362,39.08,26.568,50.354,24.724c3.595-0.588,6.736-2.661,8.667-5.751
					C2787.041,2323.802,2806.689,2279.364,2731.482,2246.817z"/>
			</g>
			<g style="opacity:0.35;">
				<path style="fill:#FFFFFF;" d="M2331.11,1369.952c21.342,41.939-40.944,77.136-69.582,39.797
					c-134.772-175.723-301.101-417.885-233.565-456.725C2072.85,927.21,2164.599,1042.736,2331.11,1369.952z"/>
			</g>
			<g style="opacity:0.35;">
				<path style="fill:#FFFFFF;" d="M2423.055,1538.761c-1.284,24.296-27.008,39.24-48.93,28.689
					c-21.063-10.137-46.917-30.063-50.509-67.459c-6.188-64.426,50.219-50.377,78.995-20.586
					C2417.653,1494.978,2424.123,1518.558,2423.055,1538.761z"/>
			</g>
			<g>
				<path style="fill:#390175;" d="M2058.334,3167.467c-25.996,0-52.127-0.342-78.486-1.035
					c-530.081-13.911-1031.87-167.578-1342.285-411.047c-21.868-17.119-28.146-47.346-14.912-71.865
					c52.893-97.786,114.276-206.904,182.452-324.336c384.717-662.544,889.694-1430.239,1110.477-1615.6
					c42.644-35.803,106.365-34.578,148.218,2.849c210.378,187.927,578.23,830,933.97,1450.93
					c37.288,65.083,74.504,130.044,111.465,194.358c74.363,129.419,133.965,232.246,187.571,323.606
					c13.438,22.949,9.087,52.639-10.332,70.608c-0.002,0.005-0.007,0.01-0.01,0.01
					C3022.289,3030.045,2577.721,3167.467,2058.334,3167.467z M1987.784,756.786c-16.758,0-33.462,5.615-46.921,16.914
					c-215.012,180.518-728.126,961.782-1101.754,1605.227c-67.977,117.09-129.165,225.859-181.863,323.286
					c-4.096,7.586-2.177,16.936,4.569,22.219c304.022,238.454,797.124,388.992,1319.063,402.688
					c542.81,14.37,1008.962-120.63,1278.896-370.056c5.972-5.537,7.278-14.724,3.103-21.853
					c-53.66-91.45-113.318-194.378-187.739-323.899c-36.97-64.329-74.194-129.304-111.489-194.402
					c-354.182-618.213-720.425-1257.473-926.055-1441.16C2023.485,763.134,2005.604,756.786,1987.784,756.786z M3273.116,2771.506
					h0.051H3273.116z"/>
			</g>
			<g>
				<path style="fill:#390175;" d="M990.397,2938.906c228.64-525.795,598.222-1405.845,838.856-1913.589
					c26.767-55.839,53.812-112.873,84.657-166.716c12.657-21.277,26.039-43.272,40.974-63.045
					c7.491-10.131,15.742-19.766,24.808-28.396c-12.935,21.314-23.371,43.717-34.164,66.094
					c-302.009,634.639-577.172,1339.456-859.441,1984.505c0.004,0.002-59.638,136.853-59.638,136.853
					c-4.338,9.954-15.925,14.507-25.879,10.168C990.609,2960.447,986.066,2948.834,990.397,2938.906L990.397,2938.906z"/>
			</g>
			<g>
				<g>
					<g>
						
							<ellipse transform="matrix(1 -0.0043 0.0043 1 -7.7386 8.0092)" style="fill:#000072;" cx="1860.209" cy="1805.106" rx="105.273" ry="121.431"/>
					</g>
				</g>
				<g>
					<g>
						
							<ellipse transform="matrix(1 -0.0036 0.0036 1 -6.4559 6.6308)" style="fill:#FFFFFF;" cx="1829.283" cy="1787.472" rx="34.323" ry="43.401"/>
					</g>
				</g>
				<g style="opacity:0.2;">
					<g>
						
							<ellipse transform="matrix(1 -0.0031 0.0031 1 -5.7878 5.9511)" style="fill:#FFFFFF;" cx="1894.144" cy="1847.945" rx="19.01" ry="29.372"/>
					</g>
				</g>
			</g>
			<g>
				<g>
					<g>
						
							<ellipse transform="matrix(0.9999 -0.0115 0.0115 0.9999 -20.5037 27.4296)" style="fill:#000072;" cx="2378.927" cy="1799.633" rx="100.378" ry="115.785"/>
					</g>
				</g>
				<g>
					<g>
						
							<ellipse transform="matrix(0.9999 -0.0108 0.0108 0.9999 -19.1277 25.4874)" style="fill:#FFFFFF;" cx="2349.319" cy="1783.031" rx="32.727" ry="41.383"/>
					</g>
				</g>
				<g style="opacity:0.2;">
					<g>
						
							<ellipse transform="matrix(0.9999 -0.0103 0.0103 0.9999 -18.874 25.0003)" style="fill:#FFFFFF;" cx="2411.577" cy="1840.246" rx="18.126" ry="28.006"/>
					</g>
				</g>
			</g>
			<g>
				<g>
					<path style="fill:#000072;" d="M2234.518,1919.784c-104.748,40.263-175.491-38.803-200.701,2.46
						c-13.801,22.589-2.124,151.503,98.119,157.439C2192.375,2083.262,2233.381,2040.136,2234.518,1919.784z"/>
				</g>
				<g>
					<path style="fill:#000072;" d="M2205.02,1956.412c-4.446,44.844-15.924,68.692-28.437,81.356
						c-13.879,14.132-28.962,14.386-36.712,14.481c-0.069,0.001-0.138,0.002-0.138,0.002c-2.007,0.024-4.083-0.019-6.161-0.132
						c-24.447-1.498-43.055-12.467-56.872-33.586c-6.767-10.354-11.401-21.633-14.505-32.377
						c-6.067-21.145-6.161-40.567-4.665-48.533c6.646,0.195,17.896,3.444,29.84,6.892c23.264,6.765,52.152,15.12,86.887,14.694
						C2184.567,1959.082,2194.798,1958.127,2205.02,1956.412z"/>
				</g>
				<g>
					<path style="fill:#FF8CC3;" d="M2176.583,2037.768c-13.879,14.132-28.962,14.386-36.712,14.481
						c-0.069,0.001-0.138,0.002-0.138,0.002c-2.007,0.024-4.083-0.019-6.161-0.132c-24.447-1.498-43.055-12.467-56.872-33.586
						c-6.767-10.354-11.401-21.633-14.505-32.377c10.119-4.479,27.503-1.425,35.337,2.655
						C2132.973,1974.696,2167.509,2000.192,2176.583,2037.768z"/>
				</g>
				<g>
					<path style="fill:#000072;" d="M2079.683,1967.141l-2.367,16.888c0,0,19.656,0.18,32.02,27.388
						C2109.336,2011.417,2112.594,1970.482,2079.683,1967.141z"/>
				</g>
			</g>
			<g>
				<ellipse style="fill:#FF8CC3;" cx="1785.26" cy="2053.9" rx="65.538" ry="30.585"/>
			</g>
			<g>
				<ellipse style="fill:#FF8CC3;" cx="2479.969" cy="2018.947" rx="65.538" ry="30.585"/>
			</g>
		</g>
		<g>
			<path style="fill:#390175;" d="M2058.336,3192.467c-26.187,0-52.815-0.351-79.146-1.045
				c-351.216-9.219-701.849-81.392-987.41-203.237c-0.209-0.078-0.414-0.156-0.613-0.24c-0.299-0.122-0.594-0.249-0.889-0.381
				c-0.184-0.083-0.371-0.171-0.56-0.259c-141.635-60.62-265.3-132.027-367.587-212.256c-31.476-24.634-40.52-68.127-21.484-103.403
				c52.983-97.957,114.495-207.3,182.833-325.02c385.809-664.424,893.041-1434.985,1116.024-1622.193
				c52.109-43.745,129.905-42.3,180.959,3.359c213.386,190.613,582.256,834.465,938.984,1457.119
				c37.312,65.129,74.514,130.061,111.46,194.353c74.333,129.365,133.899,232.132,187.456,323.408
				c0.005,0.008,0.007,0.015,0.012,0.022c19.316,32.993,13.035,75.723-14.932,101.592
				c-134.104,123.916-311.721,220.752-527.932,287.832C2560.895,3158.708,2319.601,3192.467,2058.336,3192.467z M1010.715,2941.901
				c280.029,119.615,624.428,190.474,969.789,199.541c25.896,0.679,52.082,1.025,77.832,1.025
				c511.877,0,953.328-136.64,1211.157-374.883c10.872-10.059,13.289-26.726,5.735-39.629
				c-53.633-91.406-113.264-194.287-187.673-323.777c-36.956-64.312-74.167-129.262-111.45-194.341
				c-354.785-619.265-721.609-1259.541-928.96-1444.763c-32.649-29.199-82.3-30.203-115.491-2.344
				c-218.586,183.513-721.307,948.337-1104.932,1609.002c-68.087,117.285-129.349,226.187-182.084,323.682
				c-7.417,13.743-3.918,30.693,8.33,40.278c99.075,77.708,219.253,147.005,357.218,205.984c0.072,0.029,0.144,0.063,0.216,0.093
				C1010.508,2941.813,1010.612,2941.857,1010.715,2941.901z M1000.569,2964.782h0.05H1000.569z"/>
		</g>
	</g>
</g>
</svg>
